<svg width="21" height="14" viewBox="0 0 21 14" fill="none" xmlns="http://www.w3.org/2000/svg">
<path d="M19.3 13.6H0.8C0.4 13.6 0 13.2 0 12.8C0 12.4 0.3 12 0.8 12H19.3C19.7 12 20.1 12.3 20.1 12.8C20.1 13.3 19.7 13.6 19.3 13.6Z" fill="#1D2123"/>
<path d="M19.3 1.6H0.8C0.4 1.6 0 1.2 0 0.8C0 0.4 0.3 0 0.8 0H19.3C19.7 0 20 0.4 20 0.8C20 1.2 19.7 1.6 19.3 1.6Z" fill="#1D2123"/>
<path d="M19.3 7.6H0.8C0.4 7.6 0 7.2 0 6.8C0 6.4 0.3 6 0.8 6H19.3C19.7 6.1 20 6.4 20 6.8C20 7.2 19.7 7.6 19.3 7.6Z" fill="#1D2123"/>
</svg>
