<?xml version="1.0" encoding="utf-8"?>
<svg xmlns="http://www.w3.org/2000/svg" xmlns:xlink="http://www.w3.org/1999/xlink" style="margin: auto; background: rgb(255, 255, 255); display: block; shape-rendering: auto;" width="25px" height="25px" viewBox="0 0 100 100" preserveAspectRatio="xMidYMid">
<g transform="rotate(0 50 50)">
  <rect x="44" y="9" rx="6" ry="6" width="12" height="12" fill="#2dd06e">
    <animate attributeName="opacity" values="1;0" keyTimes="0;1" dur="0.5882352941176471s" begin="-0.5294117647058824s" repeatCount="indefinite"></animate>
  </rect>
</g><g transform="rotate(36 50 50)">
  <rect x="44" y="9" rx="6" ry="6" width="12" height="12" fill="#2dd06e">
    <animate attributeName="opacity" values="1;0" keyTimes="0;1" dur="0.5882352941176471s" begin="-0.47058823529411764s" repeatCount="indefinite"></animate>
  </rect>
</g><g transform="rotate(72 50 50)">
  <rect x="44" y="9" rx="6" ry="6" width="12" height="12" fill="#2dd06e">
    <animate attributeName="opacity" values="1;0" keyTimes="0;1" dur="0.5882352941176471s" begin="-0.4117647058823529s" repeatCount="indefinite"></animate>
  </rect>
</g><g transform="rotate(108 50 50)">
  <rect x="44" y="9" rx="6" ry="6" width="12" height="12" fill="#2dd06e">
    <animate attributeName="opacity" values="1;0" keyTimes="0;1" dur="0.5882352941176471s" begin="-0.35294117647058826s" repeatCount="indefinite"></animate>
  </rect>
</g><g transform="rotate(144 50 50)">
  <rect x="44" y="9" rx="6" ry="6" width="12" height="12" fill="#2dd06e">
    <animate attributeName="opacity" values="1;0" keyTimes="0;1" dur="0.5882352941176471s" begin="-0.29411764705882354s" repeatCount="indefinite"></animate>
  </rect>
</g><g transform="rotate(180 50 50)">
  <rect x="44" y="9" rx="6" ry="6" width="12" height="12" fill="#2dd06e">
    <animate attributeName="opacity" values="1;0" keyTimes="0;1" dur="0.5882352941176471s" begin="-0.23529411764705882s" repeatCount="indefinite"></animate>
  </rect>
</g><g transform="rotate(216 50 50)">
  <rect x="44" y="9" rx="6" ry="6" width="12" height="12" fill="#2dd06e">
    <animate attributeName="opacity" values="1;0" keyTimes="0;1" dur="0.5882352941176471s" begin="-0.17647058823529413s" repeatCount="indefinite"></animate>
  </rect>
</g><g transform="rotate(252 50 50)">
  <rect x="44" y="9" rx="6" ry="6" width="12" height="12" fill="#2dd06e">
    <animate attributeName="opacity" values="1;0" keyTimes="0;1" dur="0.5882352941176471s" begin="-0.11764705882352941s" repeatCount="indefinite"></animate>
  </rect>
</g><g transform="rotate(288 50 50)">
  <rect x="44" y="9" rx="6" ry="6" width="12" height="12" fill="#2dd06e">
    <animate attributeName="opacity" values="1;0" keyTimes="0;1" dur="0.5882352941176471s" begin="-0.058823529411764705s" repeatCount="indefinite"></animate>
  </rect>
</g><g transform="rotate(324 50 50)">
  <rect x="44" y="9" rx="6" ry="6" width="12" height="12" fill="#2dd06e">
    <animate attributeName="opacity" values="1;0" keyTimes="0;1" dur="0.5882352941176471s" begin="0s" repeatCount="indefinite"></animate>
  </rect>
</g>
<!-- [ldio] generated by https://loading.io/ --></svg>