<svg width="16" height="16" viewBox="0 0 21 20" fill="#828282" xmlns="http://www.w3.org/2000/svg">
<path d="M9.00006 18C4.10006 18 6.10352e-05 14 6.10352e-05 9C6.10352e-05 4.1 4.00006 0 9.00006 0C13.9001 0 18.0001 4 18.0001 9C18.0001 14 14.0001 18 9.00006 18ZM9.00006 1.6C4.90006 1.6 1.60006 4.9 1.60006 9C1.60006 13.1 4.90006 16.4 9.00006 16.4C13.1001 16.4 16.4001 13.1 16.4001 9C16.5001 4.9 13.1001 1.6 9.00006 1.6Z" fill="#1D2123"/>
<path d="M19.3001 20C19.1001 20 18.9001 19.9 18.8001 19.8L14.3001 15.3C14.0001 15 14.0001 14.5 14.3001 14.2C14.6001 13.9 15.1001 13.9 15.4001 14.2L19.9001 18.7C20.2001 19 20.2001 19.5 19.9001 19.8C19.7001 20 19.5001 20 19.3001 20Z" fill="#1D2123"/>
</svg>
